<svg version="1.1" id="Layer_1" xmlns="http://www.w3.org/2000/svg" xmlns:xlink="http://www.w3.org/1999/xlink" x="0px" y="0px"
	 width="100%" viewBox="0 0 235 186" enable-background="new 0 0 235 186" xml:space="preserve">
<path fill="#FFFFFF" opacity="1.000000" stroke="none" 
	d="
M236.000000,68.000000 
	C236.000000,107.630028 236.000000,147.260056 236.000000,186.945038 
	C157.775681,186.945038 79.551315,186.945038 1.000000,186.945038 
	C1.000000,147.313034 1.000000,107.625175 1.355609,67.570099 
	C3.156271,70.483139 4.601325,73.763397 5.976614,76.885292 
	C22.201677,67.690788 37.891457,58.808720 53.572441,49.911156 
	C73.588226,38.553970 93.572327,27.140415 113.647186,15.888725 
	C115.624992,14.780190 118.604729,13.528742 120.315987,14.249953 
	C124.812492,16.145008 128.820114,19.172333 133.103088,21.606789 
	C148.498428,30.357557 163.933411,39.038551 179.341141,47.767574 
	C191.648132,54.739933 203.931305,61.754364 216.237457,68.728210 
	C220.797211,71.312202 225.392349,73.833763 229.885803,76.336166 
	C232.112625,73.300110 234.056320,70.650063 236.000000,68.000000 
M38.010307,129.984985 
	C38.010307,148.247742 38.010307,166.510483 38.010307,184.719116 
	C54.965721,184.719116 71.369766,184.719116 88.168648,184.719116 
	C88.168648,170.033310 88.168648,155.625046 88.168648,141.000351 
	C109.908401,141.000351 131.251846,140.863358 152.591202,141.098419 
	C157.809082,141.155884 160.009094,140.716354 160.004547,133.707184 
	C159.992310,114.876900 159.805603,96.043404 160.114609,77.218185 
	C160.212067,71.281250 159.092621,67.340279 153.172485,64.415482 
	C142.799988,59.291035 132.964844,53.082150 122.878181,47.374237 
	C119.306900,45.353291 116.070351,45.728809 112.418106,47.954327 
	C102.681236,53.887543 92.827858,59.678909 82.691849,64.886406 
	C77.801186,67.399048 75.788002,70.367851 75.894035,75.881096 
	C76.195175,91.539444 75.999634,107.207344 75.999634,122.871483 
	C75.999634,124.814964 75.999634,126.758446 75.999634,128.911133 
	C67.051620,128.911133 58.587811,128.911133 50.015671,127.990715 
	C50.015671,107.412483 50.015671,86.834259 50.015671,66.340698 
	C45.650784,66.340698 41.924095,66.340698 38.151138,66.340698 
	C38.151138,87.475990 38.151138,108.270676 38.010307,129.984985 
M102.855629,174.007721 
	C99.398468,177.340347 100.503059,181.096085 101.508224,185.212738 
	C133.791824,185.212738 165.735413,185.212738 197.696121,185.212738 
	C197.696121,145.065430 197.696121,105.665115 197.696121,66.340469 
	C193.989059,66.340469 190.593979,66.340469 186.735245,66.340469 
	C186.735245,102.406227 186.735245,138.133270 186.735245,174.000656 
	C158.769470,174.000656 131.279617,174.000656 102.855629,174.007721 
z"/>
<path fill="#FFFFFF" opacity="1.000000" stroke="none" 
	d="
M122.000000,1.000000 
	C159.906906,1.000000 197.813812,1.000000 236.000000,1.000000 
	C236.000000,22.353416 236.000000,43.708050 235.651840,65.447586 
	C230.160034,62.884739 225.034500,59.904877 219.869736,56.994606 
	C192.654572,41.659210 165.408630,26.378250 138.225266,10.986773 
	C132.702530,7.859742 127.402626,4.339154 122.000000,1.000000 
z"/>
<path fill="#FFFFFF" opacity="1.000000" stroke="none" 
	d="
M0.999999,65.000000 
	C1.000000,43.719223 1.000000,22.438446 1.000000,1.000000 
	C38.687424,1.000000 76.375053,1.000000 114.438782,1.347040 
	C103.729668,7.831923 92.632889,13.948978 81.561546,20.111732 
	C54.701393,35.063164 27.853083,50.035866 0.999999,65.000000 
z"/>
<path fill="#000000" opacity="1.000000" stroke="none" 
	d="
M0.999999,65.333328 
	C27.853083,50.035866 54.701393,35.063164 81.561546,20.111732 
	C92.632889,13.948978 103.729668,7.831923 114.907440,1.347040 
	C117.041664,1.000000 119.083336,1.000000 121.562500,1.000000 
	C127.402626,4.339154 132.702530,7.859742 138.225266,10.986773 
	C165.408630,26.378250 192.654572,41.659210 219.869736,56.994606 
	C225.034500,59.904877 230.160034,62.884739 235.651840,65.916245 
	C236.000000,66.444443 236.000000,66.888893 236.000000,67.666672 
	C234.056320,70.650063 232.112625,73.300110 229.885803,76.336166 
	C225.392349,73.833763 220.797211,71.312202 216.237457,68.728210 
	C203.931305,61.754364 191.648132,54.739933 179.341141,47.767574 
	C163.933411,39.038551 148.498428,30.357557 133.103088,21.606789 
	C128.820114,19.172333 124.812492,16.145008 120.315987,14.249953 
	C118.604729,13.528742 115.624992,14.780190 113.647186,15.888725 
	C93.572327,27.140415 73.588226,38.553970 53.572441,49.911156 
	C37.891457,58.808720 22.201677,67.690788 5.976614,76.885292 
	C4.601325,73.763397 3.156271,70.483139 1.355609,67.101440 
	C1.000000,66.555557 1.000000,66.111107 0.999999,65.333328 
z"/>
<path fill="#000000" opacity="1.000000" stroke="none" 
	d="
M50.124004,128.911133 
	C58.587811,128.911133 67.051620,128.911133 75.999634,128.911133 
	C75.999634,126.758446 75.999634,124.814964 75.999634,122.871483 
	C75.999634,107.207344 76.195175,91.539444 75.894035,75.881096 
	C75.788002,70.367851 77.801186,67.399048 82.691849,64.886406 
	C92.827858,59.678909 102.681236,53.887543 112.418106,47.954327 
	C116.070351,45.728809 119.306900,45.353291 122.878181,47.374237 
	C132.964844,53.082150 142.799988,59.291035 153.172485,64.415482 
	C159.092621,67.340279 160.212067,71.281250 160.114609,77.218185 
	C159.805603,96.043404 159.992310,114.876900 160.004547,133.707184 
	C160.009094,140.716354 157.809082,141.155884 152.591202,141.098419 
	C131.251846,140.863358 109.908401,141.000351 88.168648,141.000351 
	C88.168648,155.625046 88.168648,170.033310 88.168648,184.719116 
	C71.369766,184.719116 54.965721,184.719116 38.010307,184.719116 
	C38.010307,166.510483 38.010307,148.247742 38.533039,129.501450 
	C42.745182,128.982330 46.434593,128.946732 50.124004,128.911133 
M134.620270,67.963058 
	C130.398911,65.574829 125.918694,63.539776 122.033798,60.692474 
	C118.602318,58.177494 116.125732,59.557568 113.249397,61.225811 
	C104.950195,66.039261 96.606354,70.775742 88.204979,75.585434 
	C88.204979,93.132973 88.204979,110.879471 88.204979,128.994781 
	C107.664803,128.994781 126.920349,129.053360 146.172379,128.820511 
	C147.127640,128.808960 148.851364,126.271873 148.868607,124.893875 
	C149.060257,109.590286 149.062775,94.282356 148.863022,78.978905 
	C148.843063,77.450554 147.500031,75.455391 146.175461,74.522568 
	C142.750061,72.110252 138.991455,70.171066 134.620270,67.963058 
M59.532665,140.996689 
	C56.429790,140.996689 53.326916,140.996689 50.285892,140.996689 
	C50.285892,152.282776 50.285892,163.005096 50.285892,173.700317 
	C58.964409,173.700317 67.356377,173.700317 75.710312,173.700317 
	C75.710312,162.692581 75.710312,151.970856 75.710312,140.996689 
	C70.455658,140.996689 65.487961,140.996689 59.532665,140.996689 
z"/>
<path fill="#4D4D4D" opacity="1.000000" stroke="none" 
	d="
M103.322693,174.004181 
	C131.279617,174.000656 158.769470,174.000656 186.735245,174.000656 
	C186.735245,138.133270 186.735245,102.406227 186.735245,66.340469 
	C190.593979,66.340469 193.989059,66.340469 197.696121,66.340469 
	C197.696121,105.665115 197.696121,145.065430 197.696121,185.212738 
	C165.735413,185.212738 133.791824,185.212738 101.508224,185.212738 
	C100.503059,181.096085 99.398468,177.340347 103.322693,174.004181 
z"/>
<path fill="#4D4D4D" opacity="1.000000" stroke="none" 
	d="
M50.069839,128.450928 
	C46.434593,128.946732 42.745182,128.982330 38.603455,129.041641 
	C38.151138,108.270676 38.151138,87.475990 38.151138,66.340698 
	C41.924095,66.340698 45.650784,66.340698 50.015671,66.340698 
	C50.015671,86.834259 50.015671,107.412483 50.069839,128.450928 
z"/>
<path fill="#FBFBFB" opacity="1.000000" stroke="none" 
	d="
M134.993088,68.003006 
	C138.991455,70.171066 142.750061,72.110252 146.175461,74.522568 
	C147.500031,75.455391 148.843063,77.450554 148.863022,78.978905 
	C149.062775,94.282356 149.060257,109.590286 148.868607,124.893875 
	C148.851364,126.271873 147.127640,128.808960 146.172379,128.820511 
	C126.920349,129.053360 107.664803,128.994781 88.204979,128.994781 
	C88.204979,110.879471 88.204979,93.132973 88.204979,75.585434 
	C96.606354,70.775742 104.950195,66.039261 113.249397,61.225811 
	C116.125732,59.557568 118.602318,58.177494 122.033798,60.692474 
	C125.918694,63.539776 130.398911,65.574829 134.993088,68.003006 
z"/>
<path fill="#FBFBFB" opacity="1.000000" stroke="none" 
	d="
M60.026459,140.996689 
	C65.487961,140.996689 70.455658,140.996689 75.710312,140.996689 
	C75.710312,151.970856 75.710312,162.692581 75.710312,173.700317 
	C67.356377,173.700317 58.964409,173.700317 50.285892,173.700317 
	C50.285892,163.005096 50.285892,152.282776 50.285892,140.996689 
	C53.326916,140.996689 56.429790,140.996689 60.026459,140.996689 
z"/>
</svg>